<svg xmlns="http://www.w3.org/2000/svg" xmlns:xlink="http://www.w3.org/1999/xlink" width="227" zoomAndPan="magnify" viewBox="0 0 170.25 42.75" height="57" preserveAspectRatio="xMidYMid meet" version="1.2"><defs/><g id="0b115f867c"><g style="fill:#000000;fill-opacity:1;"><g transform="translate(37.723754, 24.889473)"><path style="stroke:none" d="M 8.171875 -9.875 L 8.375 -0.03125 L 5.484375 0.03125 L 5.40625 -3.4375 L 3.1875 -3.296875 L 2.96875 -0.046875 L 0.28125 0.015625 L 0.703125 -10.203125 L 1.25 -10.859375 L 7.328125 -11.125 Z M 5.390625 -5.5625 L 5.3125 -8.328125 L 3.484375 -8.171875 L 3.34375 -5.6875 Z M 5.390625 -5.5625 "/></g></g><g style="fill:#000000;fill-opacity:1;"><g transform="translate(46.385007, 24.889473)"><path style="stroke:none" d="M 0.28125 -11.109375 L 8.109375 -11.109375 L 7.984375 -8.390625 L 5.765625 -8.296875 L 5.453125 -0.234375 L 2.546875 0.046875 L 2.625 -8.3125 L 0.296875 -8.421875 Z M 0.28125 -11.109375 "/></g></g><g style="fill:#000000;fill-opacity:1;"><g transform="translate(54.767764, 24.889473)"><path style="stroke:none" d="M 6.859375 -2.515625 L 7.015625 -0.03125 L 0.28125 -0.03125 L 0.28125 -11.171875 L 6.796875 -10.953125 L 6.703125 -8.40625 L 3.125 -8.453125 L 3.125 -7.0625 L 5.4375 -6.921875 L 5.4375 -4.5 L 3.125 -4.640625 L 3.109375 -2.734375 Z M 6.859375 -2.515625 "/></g></g><g style="fill:#000000;fill-opacity:1;"><g transform="translate(62.064385, 24.889473)"><path style="stroke:none" d="M 7.03125 -2.625 L 7.34375 0.015625 L 0.28125 0.015625 L 0.375 -11.171875 L 3.359375 -10.984375 L 3.203125 -2.671875 Z M 7.03125 -2.625 "/></g></g><g style="fill:#000000;fill-opacity:1;"><g transform="translate(69.695206, 24.889473)"><path style="stroke:none" d="M 0.359375 -10.984375 L 3.390625 -11.078125 L 3 -0.28125 L 0.28125 0.015625 Z M 0.359375 -10.984375 "/></g></g><g style="fill:#000000;fill-opacity:1;"><g transform="translate(73.357445, 24.889473)"><path style="stroke:none" d="M 6.859375 -2.515625 L 7.015625 -0.03125 L 0.28125 -0.03125 L 0.28125 -11.171875 L 6.796875 -10.953125 L 6.703125 -8.40625 L 3.125 -8.453125 L 3.125 -7.0625 L 5.4375 -6.921875 L 5.4375 -4.5 L 3.125 -4.640625 L 3.109375 -2.734375 Z M 6.859375 -2.515625 "/></g></g><g style="fill:#000000;fill-opacity:1;"><g transform="translate(80.654066, 24.889473)"><path style="stroke:none" d="M 7.59375 -3.109375 L 6.859375 -3.015625 L 7.84375 -1.03125 L 7.59375 -0.5625 L 5.453125 0 L 3.90625 -2.828125 L 3.234375 -2.796875 L 3.109375 -0.28125 L 0.28125 -0.046875 L 0.28125 -11.171875 L 7.578125 -10.71875 L 8.109375 -10.171875 L 8.125 -4.03125 Z M 5.1875 -5.4375 L 5.203125 -8.5625 L 3.375 -8.75 L 3.296875 -5.296875 Z M 5.1875 -5.4375 "/></g></g><g style="fill:#000000;fill-opacity:1;"><g transform="translate(89.06467, 24.889473)"><path style="stroke:none" d=""/></g></g><g style="fill:#000000;fill-opacity:1;"><g transform="translate(93.242125, 24.889473)"><path style="stroke:none" d="M 6.859375 -2.515625 L 7.015625 -0.03125 L 0.28125 -0.03125 L 0.28125 -11.171875 L 6.796875 -10.953125 L 6.703125 -8.40625 L 3.125 -8.453125 L 3.125 -7.0625 L 5.4375 -6.921875 L 5.4375 -4.5 L 3.125 -4.640625 L 3.109375 -2.734375 Z M 6.859375 -2.515625 "/></g></g><g style="fill:#000000;fill-opacity:1;"><g transform="translate(100.538746, 24.889473)"><path style="stroke:none" d="M 7.03125 -2.625 L 7.34375 0.015625 L 0.28125 0.015625 L 0.375 -11.171875 L 3.359375 -10.984375 L 3.203125 -2.671875 Z M 7.03125 -2.625 "/></g></g><g style="fill:#000000;fill-opacity:1;"><g transform="translate(108.169567, 24.889473)"><path style="stroke:none" d="M 6.859375 -2.484375 L 7.015625 -0.015625 L 0.28125 -0.015625 L 0.28125 -11.140625 L 6.796875 -10.921875 L 6.703125 -8.375 L 3.125 -8.4375 L 3.125 -7.03125 L 5.4375 -6.90625 L 5.4375 -4.484375 L 3.125 -4.609375 L 3.109375 -2.703125 Z M 4.171875 -12.328125 L 3.296875 -11.65625 L 1.46875 -13.453125 L 2.75 -14.546875 Z M 4.171875 -12.328125 "/></g></g><g style="fill:#000000;fill-opacity:1;"><g transform="translate(115.466188, 24.889473)"><path style="stroke:none" d="M 5.59375 -10.9375 L 8.71875 -11.078125 L 8.3125 -0.109375 L 5.8125 -0.015625 L 3.25 -5.4375 L 3.0625 -0.28125 L 0.28125 0 L 0.359375 -11.0625 L 3.375 -11.0625 L 5.5625 -6.421875 Z M 5.59375 -10.9375 "/></g></g><g style="fill:#000000;fill-opacity:1;"><g transform="translate(124.46164, 24.889473)"><path style="stroke:none" d="M 6.859375 -2.515625 L 7.015625 -0.03125 L 0.28125 -0.03125 L 0.28125 -11.171875 L 6.796875 -10.953125 L 6.703125 -8.40625 L 3.125 -8.453125 L 3.125 -7.0625 L 5.4375 -6.921875 L 5.4375 -4.5 L 3.125 -4.640625 L 3.109375 -2.734375 Z M 6.859375 -2.515625 "/></g></g></g></svg>